<?xml version="1.0" standalone="no"?>
<!DOCTYPE svg PUBLIC "-//W3C//DTD SVG 20010904//EN"
 "http://www.w3.org/TR/2001/REC-SVG-20010904/DTD/svg10.dtd">
<svg version="1.0" xmlns="http://www.w3.org/2000/svg"
 width="1280.000000pt" height="1280.000000pt" viewBox="0 0 1280.000000 1280.000000"
 preserveAspectRatio="xMidYMid meet">
<metadata>
Created by potrace 1.15, written by Peter Selinger 2001-2017
</metadata>
<g transform="translate(0.000000,1280.000000) scale(0.100000,-0.100000)"
fill="#000000" stroke="none">
<path d="M6115 11310 c-1096 -35 -2185 -283 -3195 -726 -210 -92 -610 -293
-805 -405 -297 -170 -758 -469 -985 -638 -173 -129 -735 -625 -754 -666 -22
-45 -20 -61 13 -130 78 -161 446 -524 646 -636 72 -40 120 -48 167 -30 13 5
145 116 293 247 149 130 313 269 365 308 128 95 452 312 627 419 938 573 1972
932 3038 1056 347 40 455 46 875 46 420 0 528 -6 875 -46 1095 -127 2149 -501
3109 -1101 400 -250 583 -386 918 -679 137 -121 262 -226 278 -234 81 -42 198
10 396 176 185 154 395 394 429 488 40 113 27 130 -323 436 -161 140 -348 297
-415 347 -146 109 -535 369 -737 492 -1455 891 -3114 1330 -4815 1276z"/>
<path d="M6020 8699 c-863 -56 -1697 -293 -2455 -697 -262 -140 -604 -355
-832 -523 -112 -83 -486 -409 -509 -444 -19 -29 -13 -99 13 -150 59 -116 345
-430 568 -622 196 -170 325 -239 383 -208 15 7 95 73 177 146 178 156 242 205
452 343 661 434 1329 675 2114 763 215 24 723 24 938 0 785 -88 1453 -329
2114 -763 210 -138 274 -187 452 -343 83 -73 162 -138 177 -146 58 -32 186 38
383 208 223 192 509 506 568 622 26 51 32 121 13 150 -23 35 -397 361 -509
444 -295 218 -773 507 -1053 637 -419 194 -722 304 -1124 408 -581 150 -1267
214 -1870 175z"/>
<path d="M6045 5854 c-505 -58 -983 -233 -1415 -518 -126 -84 -284 -206 -374
-290 -46 -43 -48 -48 -43 -85 3 -23 14 -60 26 -83 58 -121 401 -491 602 -651
99 -79 179 -122 209 -112 10 3 53 35 97 71 239 200 556 354 853 413 346 69
686 50 1010 -55 209 -68 479 -217 637 -351 82 -70 95 -74 158 -51 169 63 632
526 732 733 58 122 47 146 -139 295 -467 376 -1054 618 -1658 685 -167 18
-529 18 -695 -1z"/>
<path d="M6281 3669 c-398 -46 -731 -349 -833 -756 -33 -131 -31 -341 5 -474
47 -179 120 -310 247 -443 90 -95 168 -152 281 -206 271 -130 567 -130 838 0
113 54 191 111 281 206 127 133 200 264 247 443 36 133 38 343 5 474 -104 414
-435 710 -847 757 -101 11 -119 11 -224 -1z"/>
</g>
</svg>
