<svg id="Layer_1" viewBox="0 0 22 32" sodipodi:docname="batterie2.svg" inkscape:version="1.2.2 (b0a8486541, 2022-12-01)" width="22" height="32" xmlns:inkscape="http://www.inkscape.org/namespaces/inkscape" xmlns:sodipodi="http://sodipodi.sourceforge.net/DTD/sodipodi-0.dtd" xmlns="http://www.w3.org/2000/svg" xmlns:svg="http://www.w3.org/2000/svg" xmlns:rdf="http://www.w3.org/1999/02/22-rdf-syntax-ns#" xmlns:cc="http://creativecommons.org/ns#" xmlns:dc="http://purl.org/dc/elements/1.1/"><defs id="defs8925"/><sodipodi:namedview id="namedview8923" pagecolor="#ffffff" bordercolor="#000000" borderopacity=".25" inkscape:showpageshadow="2" inkscape:pageopacity="0" inkscape:pagecheckerboard="0" inkscape:deskcolor="#d1d1d1" showgrid="true" inkscape:zoom="25.4375" inkscape:cx="10.987715" inkscape:cy="16" inkscape:window-width="1920" inkscape:window-height="1023" inkscape:window-x="0" inkscape:window-y="0" inkscape:window-maximized="1" inkscape:current-layer="Layer_1" inkscape:document-rotation="0"><inkscape:grid type="xygrid" id="grid9044" originx="0" originy="0"/></sodipodi:namedview><path id="rect291" style="color:#000;fill:#e16b00;fill-opacity:1;stroke-linecap:round;stroke-linejoin:round;-inkscape-stroke:none" d="M9 0C8 0 6.8974129 1.0658412 7 2H4C1.8013016 2 0 3.8013016.0 6v22c0 2.198699 1.8013016 4 4 4h14c2.198699.0 4-1.801301 4-4V6c0-2.1986984-1.801301-4-4-4H15c0-1-1-2-2-2zM4 4h14c1.125295.0 2 .874705 2 2v22c0 1.125295-.874705 2-2 2H4C2.874705 30 2 29.125295 2 28V6c0-1.125295.874705-2 2-2z" sodipodi:nodetypes="scsssssssscsssssssssss"/><rect style="fill:#e16b00;fill-opacity:1;stroke:none;stroke-width:2;stroke-linecap:round;stroke-linejoin:round;stroke-dasharray:none;stroke-opacity:1" id="rect1011" width="15" height="5" x="3.5" y="17.5" rx="0" ry="0"/><rect style="fill:#e16b00;fill-opacity:1;stroke:none;stroke-width:2;stroke-linecap:round;stroke-linejoin:round;stroke-dasharray:none;stroke-opacity:1" id="rect1013" width="15" height="5" x="3.5" y="23.5" rx="0" ry="0"/></svg>