<svg width="630" height="700" viewBox="0 0 629.99998 700.00003" id="svg1126" inkscape:version="1.2.2 (b0a8486541, 2022-12-01)" sodipodi:docname="logo.svg" xmlns:inkscape="http://www.inkscape.org/namespaces/inkscape" xmlns:sodipodi="http://sodipodi.sourceforge.net/DTD/sodipodi-0.dtd" xmlns:xlink="http://www.w3.org/1999/xlink" xmlns="http://www.w3.org/2000/svg" xmlns:svg="http://www.w3.org/2000/svg" xmlns:rdf="http://www.w3.org/1999/02/22-rdf-syntax-ns#" xmlns:cc="http://creativecommons.org/ns#" xmlns:dc="http://purl.org/dc/elements/1.1/"><defs id="defs1120"><linearGradient inkscape:collect="always" id="linearGradient3977"><stop style="stop-color:#ff0000;stop-opacity:1" offset="0" id="stop3963"/><stop style="stop-color:#ffff00;stop-opacity:1" offset=".17409766" id="stop3965"/><stop style="stop-color:#00ff00;stop-opacity:1" offset=".33000001" id="stop3967"/><stop style="stop-color:#00ffff;stop-opacity:1" offset=".5" id="stop3969"/><stop style="stop-color:#0000ff;stop-opacity:1" offset=".67000002" id="stop3971"/><stop style="stop-color:#ff00ff;stop-opacity:1" offset=".82999998" id="stop3973"/><stop style="stop-color:#ff0000;stop-opacity:1" offset="1" id="stop3975"/></linearGradient><linearGradient inkscape:collect="always" xlink:href="#linearGradient3977" id="linearGradient3961" x1="-286.22949" y1="563.60663" x2="-73.770462" y2="862.62299" gradientUnits="userSpaceOnUse" gradientTransform="matrix(1.6944444,0,0,1.6052632,704.99995,-704.73694)"/></defs><sodipodi:namedview id="base" pagecolor="#ffffff" bordercolor="#666666" borderopacity="1" inkscape:pageopacity="0" inkscape:pageshadow="2" inkscape:zoom=".70112024" inkscape:cx="246.03483" inkscape:cy="348.72763" inkscape:document-units="px" inkscape:current-layer="layer1" showgrid="true" inkscape:window-width="1680" inkscape:window-height="1026" inkscape:window-x="1920" inkscape:window-y="0" inkscape:window-maximized="1" inkscape:document-rotation="0" units="px" fit-margin-top="5" fit-margin-right="5" fit-margin-left="5" fit-margin-bottom="5" inkscape:showpageshadow="2" inkscape:pagecheckerboard="0" inkscape:deskcolor="#d1d1d1"><inkscape:grid type="xygrid" id="grid1671" originx="-84.999997" originy="-50.000002"/></sodipodi:namedview><g inkscape:label="Layer 1" inkscape:groupmode="layer" id="layer1" transform="translate(-85,-50)"><circle style="fill:url(#linearGradient3961);fill-opacity:1;stroke:#000;stroke-width:19.9999;stroke-linecap:round;stroke-linejoin:round;stroke-dasharray:none" id="path3953" cx="399.99994" cy="434.99994" r="305"/><g id="g950" transform="matrix(0.99417845,0,0,0.97967723,3.4915907,30.536528)" style="stroke-width:1.01326"><path style="fill:#000;fill-opacity:1;stroke:#000;stroke-width:20.2655;stroke-linecap:butt;stroke-linejoin:miter;stroke-miterlimit:4;stroke-dasharray:none;stroke-opacity:1" d="M4e2 1e2H380V60H360V30h80v30h-20v40z" id="path833"/><path style="fill:#000;fill-opacity:1;stroke:#000;stroke-width:10.1326;stroke-linecap:butt;stroke-linejoin:miter;stroke-miterlimit:4;stroke-dasharray:none;stroke-opacity:1" d="m190.67305 179.82848-19.28363-22.98133-7.66044 6.42787-19.28363-22.98133 45.96267-38.56726 19.28362 22.98134-7.66044 6.42787 19.28363 22.98134z" id="path835" sodipodi:nodetypes="ccccccccc"/><path style="fill:#000;fill-opacity:1;stroke:#000;stroke-width:10.1326;stroke-linecap:butt;stroke-linejoin:miter;stroke-miterlimit:4;stroke-dasharray:none;stroke-opacity:1" d="m576.34562 160.54485 19.28362-22.98133-7.66044-6.42788 19.28363-22.98133 45.96266 38.56726-19.28362 22.98133-7.66045-6.42788-19.28363 22.98134z" id="path843" sodipodi:nodetypes="ccccccccc"/></g><g id="g897" style="stroke:#606060;stroke-opacity:1" transform="translate(0,35)"><circle style="fill:#000;fill-opacity:1;stroke:#606060;stroke-width:10;stroke-linecap:round;stroke-linejoin:round;stroke-miterlimit:4;stroke-dasharray:none;stroke-opacity:1" id="path875" cx="400" cy="400" r="40"/><path style="fill:none;fill-opacity:1;stroke:#606060;stroke-width:40;stroke-linecap:round;stroke-linejoin:round;stroke-miterlimit:4;stroke-dasharray:none;stroke-opacity:1" id="path885" sodipodi:type="arc" sodipodi:cx="400" sodipodi:cy="400" sodipodi:rx="240" sodipodi:ry="240" sodipodi:start="3.9269908" sodipodi:end="5.4977871" sodipodi:arc-type="arc" sodipodi:open="true" d="m230.29437 230.29438a240 240 0 01339.41125-1e-5"/><path style="fill:none;fill-opacity:1;stroke:#606060;stroke-width:40;stroke-linecap:round;stroke-linejoin:round;stroke-miterlimit:4;stroke-dasharray:none;stroke-opacity:1" id="path887" sodipodi:type="arc" sodipodi:cx="400" sodipodi:cy="400" sodipodi:rx="170" sodipodi:ry="170" sodipodi:start="3.9269908" sodipodi:end="5.4977871" sodipodi:arc-type="arc" sodipodi:open="true" d="m279.79185 279.79185a170 170 0 01240.4163-1e-5"/><path style="fill:none;fill-opacity:1;stroke:#606060;stroke-width:40;stroke-linecap:round;stroke-linejoin:round;stroke-miterlimit:4;stroke-dasharray:none;stroke-opacity:1" id="path889" sodipodi:type="arc" sodipodi:cx="400" sodipodi:cy="400" sodipodi:rx="100" sodipodi:ry="100" sodipodi:start="3.9269908" sodipodi:end="5.4977871" sodipodi:arc-type="arc" sodipodi:open="true" d="m329.28932 329.28932a1e2 1e2.0 01141.42136.0"/></g><path style="fill:none;stroke:#000;stroke-width:20;stroke-linecap:butt;stroke-linejoin:round;stroke-miterlimit:4;stroke-dasharray:none;stroke-opacity:1" d="M390.48943 431.90983l89.85499-244.18452-70.83385 250.36486z" id="path877" sodipodi:nodetypes="cccc"/><g id="g6531" transform="translate(-5,35)" style="stroke-width:27;stroke-miterlimit:4;stroke-dasharray:none;fill:none;fill-opacity:1;stroke:#fff;stroke-opacity:1"><path style="fill:none;stroke:#fff;stroke-width:27;stroke-linecap:round;stroke-linejoin:round;stroke-miterlimit:4;stroke-dasharray:none;stroke-opacity:1;fill-opacity:1" d="m205 490 15 80 20-80 20 80 20-80" id="path6515"/><path style="fill:none;stroke:#fff;stroke-width:27;stroke-linecap:round;stroke-linejoin:round;stroke-miterlimit:4;stroke-dasharray:none;stroke-opacity:1;fill-opacity:1" d="m294 550 36-25c0-10-9-15-20-15-10 0-20 10-20 30s10.07722 28.75965 20 30c8 1 17-4 20-10" id="path6517" sodipodi:nodetypes="ccscsc"/><path style="fill:none;stroke:#fff;stroke-width:27;stroke-linecap:round;stroke-linejoin:round;stroke-miterlimit:4;stroke-dasharray:none;stroke-opacity:1;fill-opacity:1" d="m520 545 36-25c0-10-9-15-20-15-10 0-20 10-20 30s10.07722 28.75965 20 30c8 1 17-4 20-10" id="path6519" sodipodi:nodetypes="ccscsc"/><path style="fill:none;stroke:#fff;stroke-width:27;stroke-linecap:round;stroke-linejoin:round;stroke-miterlimit:4;stroke-dasharray:none;stroke-opacity:1;fill-opacity:1" d="m340 495h25v75-75h25" id="path6521"/><path style="fill:none;stroke:#fff;stroke-width:27;stroke-linecap:round;stroke-linejoin:miter;stroke-miterlimit:4;stroke-dasharray:none;stroke-opacity:1;fill-opacity:1" d="M405 570V515" id="path6523"/><path style="fill:none;stroke:#fff;stroke-width:27;stroke-linecap:round;stroke-linejoin:miter;stroke-miterlimit:4;stroke-dasharray:none;stroke-opacity:1;fill-opacity:1" d="m405 5e2v-5" id="path6525"/><path style="fill:none;stroke:#fff;stroke-width:27;stroke-linecap:round;stroke-linejoin:round;stroke-miterlimit:4;stroke-dasharray:none;stroke-opacity:1;fill-opacity:1" d="m430 570v-55 15c13-22 30-18 30 0v40-40c5-17 35-23 35 0v40" id="path6527" sodipodi:nodetypes="cccccccc"/><path style="fill:none;stroke:#fff;stroke-width:27;stroke-linecap:round;stroke-linejoin:round;stroke-miterlimit:4;stroke-dasharray:none;stroke-opacity:1;fill-opacity:1" d="m575 565v-55 15c13-22 30-18 30 0" id="path6529" sodipodi:nodetypes="cccc"/></g><g id="g929" transform="translate(-5,35)" style="stroke-width:12;stroke-miterlimit:4;stroke-dasharray:none"><path style="fill:none;stroke:#000;stroke-width:12;stroke-linecap:round;stroke-linejoin:round;stroke-miterlimit:4;stroke-dasharray:none;stroke-opacity:1" d="m205 490 15 80 20-80 20 80 20-80" id="path905"/><path style="fill:none;stroke:#000;stroke-width:12;stroke-linecap:round;stroke-linejoin:round;stroke-miterlimit:4;stroke-dasharray:none;stroke-opacity:1" d="m294 550 36-25c0-10-9-15-20-15-10 0-20 10-20 30s10.07722 28.75965 20 30c8 1 17-4 20-10" id="path907" sodipodi:nodetypes="ccscsc"/><path style="fill:none;stroke:#000;stroke-width:12;stroke-linecap:round;stroke-linejoin:round;stroke-miterlimit:4;stroke-dasharray:none;stroke-opacity:1" d="m520 545 36-25c0-10-9-15-20-15-10 0-20 10-20 30s10.07722 28.75965 20 30c8 1 17-4 20-10" id="path909" sodipodi:nodetypes="ccscsc"/><path style="fill:none;stroke:#000;stroke-width:12;stroke-linecap:round;stroke-linejoin:round;stroke-miterlimit:4;stroke-dasharray:none;stroke-opacity:1" d="m340 495h25v75-75h25" id="path911"/><path style="fill:none;stroke:#000;stroke-width:12;stroke-linecap:round;stroke-linejoin:miter;stroke-miterlimit:4;stroke-dasharray:none;stroke-opacity:1" d="M405 570V515" id="path913"/><path style="fill:none;stroke:#000;stroke-width:12;stroke-linecap:round;stroke-linejoin:miter;stroke-miterlimit:4;stroke-dasharray:none;stroke-opacity:1" d="m405 5e2v-5" id="path915"/><path style="fill:none;stroke:#000;stroke-width:12;stroke-linecap:round;stroke-linejoin:round;stroke-miterlimit:4;stroke-dasharray:none;stroke-opacity:1" d="m430 570v-55 15c13-22 30-18 30 0v40-40c5-17 35-23 35 0v40" id="path917" sodipodi:nodetypes="cccccccc"/><path style="fill:none;stroke:#000;stroke-width:12;stroke-linecap:round;stroke-linejoin:round;stroke-miterlimit:4;stroke-dasharray:none;stroke-opacity:1" d="m575 565v-55 15c13-22 30-18 30 0" id="path919" sodipodi:nodetypes="cccc"/></g><path style="fill:none;stroke:#fff;stroke-width:4.8;stroke-linecap:butt;stroke-linejoin:miter;stroke-dasharray:none;stroke-opacity:1" d="m392.40686 404.47313 80.44999-218.8428" id="path5696" sodipodi:nodetypes="cc"/><path style="fill:none;stroke:#fff;stroke-width:4.8;stroke-linecap:round;stroke-linejoin:round;stroke-dasharray:none;stroke-opacity:1" id="path5750" sodipodi:type="arc" sodipodi:cx="480.22104" sodipodi:cy="190.6281" sodipodi:rx="8.3204432" sodipodi:ry="10.652688" sodipodi:start="3.6733314" sodipodi:end="5.2396521" sodipodi:arc-type="arc" d="m473.04943 185.22684a8.3204432 10.652688.0 0111.35821-3.80466" sodipodi:open="true"/></g></svg>