<svg width="48" height="48" viewBox="0 0 12.7 12.7" id="svg519" inkscape:version="1.2.2 (b0a8486541, 2022-12-01)" sodipodi:docname="oeuil-barre.svg" xmlns:inkscape="http://www.inkscape.org/namespaces/inkscape" xmlns:sodipodi="http://sodipodi.sourceforge.net/DTD/sodipodi-0.dtd" xmlns="http://www.w3.org/2000/svg" xmlns:svg="http://www.w3.org/2000/svg"><sodipodi:namedview id="namedview521" pagecolor="#ffffff" bordercolor="#000000" borderopacity=".25" inkscape:showpageshadow="2" inkscape:pageopacity="0" inkscape:pagecheckerboard="0" inkscape:deskcolor="#d1d1d1" inkscape:document-units="px" showgrid="true" inkscape:zoom="16.958333" inkscape:cx="22.555283" inkscape:cy="24" inkscape:window-width="1920" inkscape:window-height="1023" inkscape:window-x="0" inkscape:window-y="0" inkscape:window-maximized="1" inkscape:current-layer="layer1"><inkscape:grid type="xygrid" id="grid640" originx="0" originy="0"/></sodipodi:namedview><defs id="defs516"/><g inkscape:label="Calque 1" inkscape:groupmode="layer" id="layer1"><path style="fill:#e5f6ea;stroke:#000;stroke-width:.79375;stroke-linecap:round;stroke-dasharray:none;fill-opacity:1" d="M12.303125 6.35C8.73125 11.377083 3.96875 11.377083.39687499 6.35" id="path7391" sodipodi:nodetypes="cc"/><path style="fill:#e5f6ea;stroke:#000;stroke-width:.79375;stroke-linecap:round;stroke-dasharray:none;fill-opacity:1" d="M.396875 6.35c3.571875-5.0270833 8.334375-5.0270833 11.90625.0" id="path7389" sodipodi:nodetypes="cc"/><path style="fill:none;stroke:#000;stroke-width:.79375;stroke-linecap:round;stroke-dasharray:none" d="M12.303125 6.35C8.73125 11.377083 3.96875 11.377083.39687499 6.35" id="path4210" sodipodi:nodetypes="cc"/><circle style="fill:#00b900;fill-opacity:1;stroke:#00b902;stroke-width:.79375;stroke-linecap:round;stroke-dasharray:none;stroke-opacity:1" id="path4212" cx="6.2177081" cy="5.6885414" r="2.6458333"/><circle style="fill:#fff;fill-opacity:1;stroke:none;stroke-width:.79375;stroke-linecap:round;stroke-dasharray:none;stroke-opacity:1" id="path5718" cx="4.7624998" cy="4.2333331" r="1.3229166"/><path style="fill:none;stroke:#000;stroke-width:.79375;stroke-linecap:round;stroke-dasharray:none" d="M.396875 6.35c3.571875-5.0270833 8.334375-5.0270833 11.90625.0" id="path3482" sodipodi:nodetypes="cc"/><g id="path9180" style="fill:#fff;fill-opacity:1"><path style="color:#000;fill:#fff;stroke-width:1.5875;stroke-linecap:round;-inkscape-stroke:none;fill-opacity:1" d="M1.8520833 1.8520833 10.847917 11.1125" id="path9910"/><path style="color:#000;fill:#dcffdc;stroke-linecap:round;-inkscape-stroke:none;fill-opacity:1" d="M1.8632812 1.0585937a.79374999.79374999.0 00-.5644531.2246094.79374999.79374999.0 00-.015625 1.1210938l8.9960939 9.2617191a.79374999.79374999.0 001.121094.01563.79374999.79374999.0 00.01758-1.123047L2.421875 1.2988281a.79374999.79374999.0 00-.5585938-.2402344z" id="path9912"/></g><g id="g10203" style="fill:#282828;fill-opacity:1"><path style="color:#000;fill:#282828;stroke-width:1.5875;stroke-linecap:round;-inkscape-stroke:none;fill-opacity:1" d="M1.8520833 1.8520833 10.847917 11.1125" id="path10199"/><path style="color:#000;fill:#282828;fill-opacity:1;stroke-linecap:round;-inkscape-stroke:none" d="M1.8632812 1.0585937C1.6527898 1.0556514 1.4497504 1.1364457 1.2988281 1.2832031L11.400391 11.681646c.315229-.305157.323103-.808173.01758-1.123047L2.421875 1.2988281c-.1469279-.1510505-.3478891-.2374779-.5585938-.2402344z" id="path10201" sodipodi:nodetypes="cccccc"/></g></g></svg>