<?xml version="1.0" encoding="UTF-8" standalone="no"?>
<!-- Created with Inkscape (http://www.inkscape.org/) -->

<svg
   width="48"
   height="48"
   viewBox="0 0 12.7 12.7"
   version="1.1"
   id="svg519"
   inkscape:version="1.2.2 (b0a8486541, 2022-12-01)"
   sodipodi:docname="oeuil-barre.svg"
   xmlns:inkscape="http://www.inkscape.org/namespaces/inkscape"
   xmlns:sodipodi="http://sodipodi.sourceforge.net/DTD/sodipodi-0.dtd"
   xmlns="http://www.w3.org/2000/svg"
   xmlns:svg="http://www.w3.org/2000/svg">
  <sodipodi:namedview
     id="namedview521"
     pagecolor="#ffffff"
     bordercolor="#000000"
     borderopacity="0.25"
     inkscape:showpageshadow="2"
     inkscape:pageopacity="0.0"
     inkscape:pagecheckerboard="0"
     inkscape:deskcolor="#d1d1d1"
     inkscape:document-units="px"
     showgrid="true"
     inkscape:zoom="16.958333"
     inkscape:cx="22.555283"
     inkscape:cy="24"
     inkscape:window-width="1920"
     inkscape:window-height="1023"
     inkscape:window-x="0"
     inkscape:window-y="0"
     inkscape:window-maximized="1"
     inkscape:current-layer="layer1">
    <inkscape:grid
       type="xygrid"
       id="grid640"
       originx="0"
       originy="0" />
  </sodipodi:namedview>
  <defs
     id="defs516" />
  <g
     inkscape:label="Calque 1"
     inkscape:groupmode="layer"
     id="layer1">
    <path
       style="fill:#e5f6ea;stroke:#000000;stroke-width:0.79375;stroke-linecap:round;stroke-dasharray:none;fill-opacity:1"
       d="M 12.303125,6.35 C 8.73125,11.377083 3.96875,11.377083 0.39687499,6.35"
       id="path7391"
       sodipodi:nodetypes="cc" />
    <path
       style="fill:#e5f6ea;stroke:#000000;stroke-width:0.79375;stroke-linecap:round;stroke-dasharray:none;fill-opacity:1"
       d="M 0.396875,6.35 C 3.96875,1.3229167 8.73125,1.3229167 12.303125,6.35"
       id="path7389"
       sodipodi:nodetypes="cc" />
    <path
       style="fill:none;stroke:#000000;stroke-width:0.79375;stroke-linecap:round;stroke-dasharray:none"
       d="M 12.303125,6.35 C 8.73125,11.377083 3.96875,11.377083 0.39687499,6.35"
       id="path4210"
       sodipodi:nodetypes="cc" />
    <circle
       style="fill:#00b900;fill-opacity:1;stroke:#00b902;stroke-width:0.79375;stroke-linecap:round;stroke-dasharray:none;stroke-opacity:1"
       id="path4212"
       cx="6.2177081"
       cy="5.6885414"
       r="2.6458333" />
    <circle
       style="fill:#ffffff;fill-opacity:1;stroke:none;stroke-width:0.79375;stroke-linecap:round;stroke-dasharray:none;stroke-opacity:1"
       id="path5718"
       cx="4.7624998"
       cy="4.2333331"
       r="1.3229166" />
    <path
       style="fill:none;stroke:#000000;stroke-width:0.79375;stroke-linecap:round;stroke-dasharray:none"
       d="M 0.396875,6.35 C 3.96875,1.3229167 8.73125,1.3229167 12.303125,6.35"
       id="path3482"
       sodipodi:nodetypes="cc" />
    <g
       id="path9180"
       style="fill:#ffffff;fill-opacity:1">
      <path
         style="color:#000000;fill:#ffffff;stroke-width:1.5875;stroke-linecap:round;-inkscape-stroke:none;fill-opacity:1"
         d="M 1.8520833,1.8520833 10.847917,11.1125"
         id="path9910" />
      <path
         style="color:#000000;fill:#dcffdc;stroke-linecap:round;-inkscape-stroke:none;fill-opacity:1"
         d="M 1.8632812,1.0585937 A 0.79374999,0.79374999 0 0 0 1.2988281,1.2832031 0.79374999,0.79374999 0 0 0 1.2832031,2.4042969 l 8.9960939,9.2617191 a 0.79374999,0.79374999 0 0 0 1.121094,0.01563 0.79374999,0.79374999 0 0 0 0.01758,-1.123047 L 2.421875,1.2988281 A 0.79374999,0.79374999 0 0 0 1.8632812,1.0585937 Z"
         id="path9912" />
    </g>
    <g
       id="g10203"
       style="fill:#282828;fill-opacity:1">
      <path
         style="color:#000000;fill:#282828;stroke-width:1.5875;stroke-linecap:round;-inkscape-stroke:none;fill-opacity:1"
         d="M 1.8520833,1.8520833 10.847917,11.1125"
         id="path10199" />
      <path
         style="color:#000000;fill:#282828;fill-opacity:1;stroke-linecap:round;-inkscape-stroke:none"
         d="M 1.8632812,1.0585937 C 1.6527898,1.0556514 1.4497504,1.1364457 1.2988281,1.2832031 L 11.400391,11.681646 c 0.315229,-0.305157 0.323103,-0.808173 0.01758,-1.123047 L 2.421875,1.2988281 C 2.2749471,1.1477776 2.0739859,1.0613502 1.8632812,1.0585937 Z"
         id="path10201"
         sodipodi:nodetypes="cccccc" />
    </g>
  </g>
</svg>
